<svg width="85" height="30" viewBox="0 0 85 30" fill="none" xmlns="http://www.w3.org/2000/svg">
<path d="M11.4039 22.9813C10.3675 22.9813 9.84919 22.6208 9.11323 21.9059C8.37102 21.1845 8 20.3179 8 19.3119V11.6567C8 10.6509 8.37102 9.78422 9.11323 9.07563C9.84903 8.36071 10.3673 8.00016 11.4039 8.00016H24.0525C24.0845 8.00016 24.1102 8.00649 24.123 8.02549C24.1422 8.04448 24.1486 8.06981 24.1486 8.1013V10.5623C24.1486 10.5876 24.1422 10.6131 24.123 10.6319C24.1102 10.6509 24.0845 10.6636 24.0525 10.6636H11.4039C11.2248 10.6636 11.0649 10.7269 10.924 10.8597C10.7895 10.9925 10.7193 11.1442 10.7193 11.3278V19.641C10.7193 19.8306 10.7895 19.9889 10.924 20.1152C11.0647 20.2421 11.2248 20.3053 11.4039 20.3053H23.5728L32.498 8.97433C33.1954 8.32272 34.0016 8.00016 34.91 8.00016C35.8249 8.00016 36.6311 8.32272 37.3283 8.97433L46.2472 20.3053C49.363 20.3053 52.4661 20.3366 55.5883 20.3366H58.1281C58.6786 20.3366 59.1325 19.8876 59.1325 19.3436V17.8188C59.1325 17.281 58.6784 16.832 58.1281 16.832H55.5883H54.6031H54.2894H52.8946H49.3694C47.3411 16.832 45.6776 15.1869 45.6776 13.175V11.6502C45.6776 9.64477 47.3411 8 49.3694 8H63.4961H64.5133H77.8913C77.9233 8 77.9489 8.01266 77.968 8.03166C77.9936 8.05065 78 8.07581 78 8.10113V10.5621C78 10.5874 77.9936 10.6129 77.968 10.6318C77.9488 10.6508 77.9233 10.6634 77.8913 10.6634H69.9004V22.88C69.9004 22.9052 69.8875 22.9307 69.8747 22.9493C69.8555 22.9685 69.83 22.9812 69.798 22.9812H67.3094C67.2774 22.9812 67.2517 22.9685 67.2324 22.9493C67.2132 22.9307 67.2068 22.9054 67.2068 22.88V10.6634H64.5133H63.4961H51.9155H51.5893H49.3692C48.8253 10.6634 48.3711 11.1126 48.3711 11.6502V13.175C48.3711 13.7192 48.8252 14.1684 49.3692 14.1684H51.9155H52.8944H53.4319H54.6028H58.1279C60.1626 14.1684 61.826 15.8131 61.826 17.8188V19.3436C61.826 21.3554 60.1625 23 58.1279 23C54.2764 23 50.4056 22.9813 46.5541 22.9813C45.332 22.9813 44.2826 22.4687 43.5276 21.5135L34.91 10.5748L26.2982 21.5133C25.5433 22.4685 24.4876 22.9812 23.2657 22.9812C19.3181 22.9813 15.345 22.9813 11.4039 22.9813Z" fill="white"/>
</svg>
